<?xml version="1.0" encoding="utf-8"?>
<!-- Generator: Adobe Illustrator 16.0.3, SVG Export Plug-In . SVG Version: 6.00 Build 0)  -->
<!DOCTYPE svg PUBLIC "-//W3C//DTD SVG 1.1//EN" "http://www.w3.org/Graphics/SVG/1.1/DTD/svg11.dtd">
<svg version="1.1" id="Layer_1" xmlns:sketch="http://www.bohemiancoding.com/sketch/ns"
	 xmlns="http://www.w3.org/2000/svg" xmlns:xlink="http://www.w3.org/1999/xlink" x="0px" y="0px" width="19px" height="19px"
	 viewBox="0 0 19 19" enable-background="new 0 0 19 19" xml:space="preserve">
<title>dim-time</title>
<desc>Created with Sketch.</desc>
<g id="pivot" sketch:type="MSPage">
	<g id="dim-time" sketch:type="MSArtboardGroup">
		<path id="Rectangle-92-Copy-5" sketch:type="MSShapeGroup" fill="#249BDD" d="M9.5,17c4.143,0,7.5-3.357,7.5-7.5
			C17,5.358,13.643,2,9.5,2C5.358,2,2,5.358,2,9.5C2,13.643,5.358,17,9.5,17z M9.5,16C5.91,16,3,13.09,3,9.5S5.91,3,9.5,3
			S16,5.91,16,9.5S13.09,16,9.5,16z M9,4h1v5H9V4z M9,9h5v1H9V9z"/>
	</g>
</g>
</svg>
