<?xml version="1.0" encoding="utf-8"?>
<!-- Generator: Adobe Illustrator 16.0.3, SVG Export Plug-In . SVG Version: 6.00 Build 0)  -->
<!DOCTYPE svg PUBLIC "-//W3C//DTD SVG 1.1//EN" "http://www.w3.org/Graphics/SVG/1.1/DTD/svg11.dtd">
<svg version="1.1" id="Layer_1" xmlns:sketch="http://www.bohemiancoding.com/sketch/ns"
	 xmlns="http://www.w3.org/2000/svg" xmlns:xlink="http://www.w3.org/1999/xlink" x="0px" y="0px" width="19px" height="19px"
	 viewBox="0 0 19 19" enable-background="new 0 0 19 19" xml:space="preserve">
<path fill="#249BDD" d="M9.5,2C5.358,2,2,5.358,2,9.5C2,13.643,5.358,17,9.5,17c4.143,0,7.5-3.357,7.5-7.5C17,5.358,13.643,2,9.5,2z
	 M12,3.498C13.58,4.157,14.844,5.421,15.502,7H12V3.498z M7,15.502C5.42,14.844,4.157,13.579,3.498,12H7V15.502z M7,11H3.174
	C3.06,10.519,3,10.016,3,9.5C3,8.984,3.06,8.481,3.174,8H7V11z M7,7H3.498C4.157,5.421,5.42,4.157,7,3.498V7z M11,15.826
	C10.519,15.939,10.016,16,9.5,16c-0.516,0-1.019-0.061-1.5-0.174V12h3V15.826z M11,11H8V8h3V11z M11,7H8V3.174
	C8.481,3.06,8.984,3,9.5,3c0.516,0,1.019,0.06,1.5,0.174V7z M12,15.502V12h3.502C14.844,13.579,13.58,14.844,12,15.502z M12,11V8
	h3.826C15.939,8.481,16,8.984,16,9.5c0,0.516-0.061,1.019-0.174,1.5H12z"/>
</svg>
