<?xml version="1.0" encoding="utf-8"?>
<!-- Generator: Adobe Illustrator 16.0.3, SVG Export Plug-In . SVG Version: 6.00 Build 0)  -->
<!DOCTYPE svg PUBLIC "-//W3C//DTD SVG 1.1//EN" "http://www.w3.org/Graphics/SVG/1.1/DTD/svg11.dtd">
<svg version="1.1" id="Layer_1" xmlns:sketch="http://www.bohemiancoding.com/sketch/ns"
	 xmlns="http://www.w3.org/2000/svg" xmlns:xlink="http://www.w3.org/1999/xlink" x="0px" y="0px" width="19px" height="19px"
	 viewBox="0 0 19 19" enable-background="new 0 0 19 19" xml:space="preserve">
<path fill="#FFFFFF" d="M16.772,11.48l-1.407-0.812c0.092-0.389,0.141-0.793,0.141-1.208c0-0.389-0.043-0.768-0.123-1.134
	l1.39-0.802c0.242-0.14,0.329-0.45,0.19-0.689l-1.25-2.165c-0.136-0.236-0.449-0.321-0.692-0.18l-1.464,0.845
	c-0.648-0.554-1.428-0.979-2.291-1.228V2.51c0-0.28-0.225-0.51-0.502-0.51h-2.5C7.992,2,7.762,2.228,7.762,2.51v1.573
	C6.876,4.326,6.074,4.752,5.409,5.315L3.979,4.49C3.737,4.35,3.426,4.43,3.287,4.67l-1.25,2.165C1.901,7.07,1.984,7.383,2.228,7.524
	l1.339,0.773c-0.085,0.375-0.13,0.765-0.13,1.164c0,0.425,0.051,0.839,0.148,1.237L2.228,11.48c-0.242,0.141-0.329,0.449-0.19,0.689
	l1.25,2.165c0.136,0.235,0.449,0.32,0.692,0.18l1.489-0.86c0.654,0.539,1.434,0.947,2.294,1.184v1.652c0,0.28,0.225,0.51,0.502,0.51
	h2.5c0.271,0,0.502-0.229,0.502-0.51v-1.677c0.836-0.241,1.596-0.647,2.232-1.179l1.522,0.88c0.243,0.14,0.554,0.061,0.692-0.18
	l1.25-2.165C17.099,11.935,17.016,11.621,16.772,11.48z M9.47,12.18c-1.596,0-2.89-1.219-2.89-2.72c0-1.502,1.293-2.719,2.89-2.719
	c1.596,0,2.89,1.217,2.89,2.719C12.359,10.961,11.065,12.18,9.47,12.18z"/>
</svg>
